<?xml version="1.0" encoding="iso-8859-1"?>
<!-- Generator: Adobe Illustrator 19.0.0, SVG Export Plug-In . SVG Version: 6.00 Build 0)  -->
<svg version="1.1" id="Layer_1" xmlns="http://www.w3.org/2000/svg" xmlns:xlink="http://www.w3.org/1999/xlink" x="0px" y="0px"
	 viewBox="0 0 503.754 503.754" style="enable-background:new 0 0 503.754 503.754;" xml:space="preserve">
<g transform="translate(0 1)">
	<path style="fill:#FFA800;" d="M411.399,7.399H260.273c-9.277,0-16.792,7.514-16.792,16.792v453.378
		c0,9.277,7.514,16.792,16.792,16.792h151.126c9.277,0,16.792-7.514,16.792-16.792V24.191
		C428.191,14.914,420.676,7.399,411.399,7.399"/>
	<path style="fill:#FFFFFF;" d="M243.481,7.399H92.355c-9.277,0-16.792,7.514-16.792,16.792v453.378
		c0,9.277,7.514,16.792,16.792,16.792h151.126c9.277,0,16.792-7.514,16.792-16.792V24.191
		C260.273,14.914,252.758,7.399,243.481,7.399"/>
	<path style="fill:#FFE100;" d="M386.211,7.399H117.543c-9.277,0-16.792,7.514-16.792,16.792v453.378
		c0,9.277,7.514,16.792,16.792,16.792h268.669c9.277,0,16.792-7.514,16.792-16.792V24.191
		C403.003,14.914,395.489,7.399,386.211,7.399"/>
	<path style="fill:#FFA800;" d="M277.065,351.631L277.065,351.631c0,0,42.156,42.156,75.563-8.396
		c17.388-26.313,5.6-51.945-12.938-69.661l-79.803-78.594c-4.492-3.829-11.393-3.829-15.893,0l-80.962,78.594
		c-15.927,16.666-29.495,43.281-11.905,69.661c33.584,50.375,75.563,8.396,75.563,8.396c0,21.519-6.129,49.175-7.917,56.765
		c-0.243,1.058,0.571,2.007,1.654,2.007h62.91c1.083,0,1.889-0.949,1.646-1.998C283.202,400.789,277.065,373.015,277.065,351.631"/>
	<path d="M428.191,360.024c-4.641,0-8.396-3.755-8.396-8.396V24.188c0-4.628-3.763-8.396-8.396-8.396H92.355
		c-4.628,0-8.396,3.767-8.396,8.396v50.375c0,4.637-3.759,8.396-8.396,8.396c-4.637,0-8.396-3.759-8.396-8.396V24.188
		C67.167,10.298,78.466-1,92.355-1h319.044c13.889,0,25.188,11.298,25.188,25.188v327.44
		C436.587,356.268,432.831,360.024,428.191,360.024z"/>
	<path d="M411.399,502.754H92.355c-13.889,0-25.188-11.298-25.188-25.188V141.734c0-4.637,3.759-8.396,8.396-8.396
		c4.637,0,8.396,3.759,8.396,8.396v335.832c0,4.632,3.767,8.396,8.396,8.396h319.044c4.633,0,8.396-3.763,8.396-8.396v-58.771
		c0-4.641,3.755-8.396,8.396-8.396s8.396,3.755,8.396,8.396v58.771C436.587,491.455,425.288,502.754,411.399,502.754z"/>
	<path d="M83.959,108.15c0,4.635-3.761,8.396-8.396,8.396c-4.635,0-8.396-3.761-8.396-8.396s3.761-8.396,8.396-8.396
		C80.198,99.754,83.959,103.515,83.959,108.15"/>
	<path d="M436.587,385.215c0,4.635-3.761,8.396-8.396,8.396s-8.396-3.761-8.396-8.396s3.761-8.396,8.396-8.396
		S436.587,380.58,436.587,385.215"/>
	<path d="M151.126,49.379h-41.979c-4.637,0-8.396-3.759-8.396-8.396s3.759-8.396,8.396-8.396h41.979
		c4.637,0,8.396,3.759,8.396,8.396S155.763,49.379,151.126,49.379z"/>
	<path d="M109.147,91.359c-4.637,0-8.396-3.759-8.396-8.396V40.984c0-4.637,3.759-8.396,8.396-8.396
		c4.637,0,8.396,3.759,8.396,8.396v41.979C117.543,87.6,113.783,91.359,109.147,91.359z"/>
	<path d="M128.743,135.204c-9.905,0-19.342-4.264-25.893-11.696c-3.066-3.476-2.734-8.781,0.746-11.848
		c3.472-3.066,8.781-2.73,11.848,0.746c3.366,3.817,8.211,6.006,13.299,6.006c9.773,0,17.722-7.949,17.722-17.722
		s-7.949-17.726-17.722-17.726c-5.088,0-9.937,2.189-13.299,6.002c-3.066,3.476-8.363,3.804-11.852,0.742
		c-3.476-3.066-3.808-8.375-0.742-11.852c6.551-7.424,15.988-11.684,25.893-11.684c19.03,0,34.514,15.484,34.514,34.518
		C163.257,119.72,147.773,135.204,128.743,135.204z"/>
	<path d="M283.337,418.795h-62.912c-3.112,0-6.002-1.386-7.924-3.813c-1.906-2.402-2.603-5.493-1.906-8.486
		c1.332-5.649,4.866-21.539,6.645-37.732c-8.396,4.633-19.596,8.642-31.985,7.437c-15.8-1.566-29.636-11.093-41.114-28.312
		c-16.402-24.597-11.61-54.549,12.819-80.114l81.188-78.818c8.047-6.875,19.551-6.867,27.184-0.369l80.253,78.998
		c25.712,24.581,31.001,54.623,14.045,80.278c-11.397,17.251-25.18,26.811-40.955,28.402c-12.512,1.345-23.712-2.804-32.149-7.469
		c1.787,16.103,5.313,32.034,6.633,37.7c0.689,3.042-0.016,6.125-1.919,8.511C289.314,417.417,286.436,418.795,283.337,418.795z
		 M228.788,402.003h46.194c-2.575-12.323-6.313-33.231-6.313-50.375V331.36l14.324,14.324c0.435,0.418,16.283,15.718,34.076,13.873
		c10.487-1.09,20.088-8.142,28.558-20.949c16.825-25.466-0.131-47.875-11.741-58.968l-79.892-78.679
		c-0.902-0.75-3.202-0.75-4.559,0.414l-80.556,78.224c-8.712,9.126-27.676,33.625-10.765,58.976
		c8.531,12.799,18.19,19.834,28.709,20.908c17.845,1.755,33.793-13.652,33.948-13.807l14.295-14.119l0.02,20.071
		C235.085,368.928,231.363,389.713,228.788,402.003z"/>
</g>
<g>
</g>
<g>
</g>
<g>
</g>
<g>
</g>
<g>
</g>
<g>
</g>
<g>
</g>
<g>
</g>
<g>
</g>
<g>
</g>
<g>
</g>
<g>
</g>
<g>
</g>
<g>
</g>
<g>
</g>
</svg>
