<?xml version="1.0" encoding="iso-8859-1"?>
<!-- Generator: Adobe Illustrator 19.0.0, SVG Export Plug-In . SVG Version: 6.00 Build 0)  -->
<svg version="1.1" id="Layer_1" xmlns="http://www.w3.org/2000/svg" xmlns:xlink="http://www.w3.org/1999/xlink" x="0px" y="0px"
	 viewBox="0 0 503.754 503.754" style="enable-background:new 0 0 503.754 503.754;" xml:space="preserve">
<g transform="translate(0 1)">
	<path style="fill:#FFA800;" d="M411.399,7.399H260.273c-9.277,0-16.792,7.514-16.792,16.792v453.378
		c0,9.277,7.514,16.792,16.792,16.792h151.126c9.277,0,16.792-7.514,16.792-16.792V24.191
		C428.191,14.914,420.676,7.399,411.399,7.399"/>
	<path style="fill:#FFFFFF;" d="M243.481,7.399H92.355c-9.277,0-16.792,7.514-16.792,16.792v453.378
		c0,9.277,7.514,16.792,16.792,16.792h151.126c9.277,0,16.792-7.514,16.792-16.792V24.191
		C260.273,14.914,252.758,7.399,243.481,7.399"/>
	<path style="fill:#FFE100;" d="M386.211,7.399H117.543c-9.277,0-16.792,7.514-16.792,16.792v453.378
		c0,9.277,7.514,16.792,16.792,16.792h268.669c9.277,0,16.792-7.514,16.792-16.792V24.191
		C403.003,14.914,395.489,7.399,386.211,7.399"/>
	<path style="fill:#FFA800;" d="M276.929,360.027c0,20.839,5.743,41.677,7.733,48.251c0.327,1.083-0.495,2.124-1.62,2.124h-62.608
		c-1.125,0-1.939-1.041-1.62-2.116c1.973-6.608,7.741-27.673,7.741-48.26c-8.295,6.011-17.883,9.11-28.454,9.11
		c-30.695,0-57.327-25.775-55.405-56.857c1.075-17.48,12.208-32.475,27.035-41.778c14.886-9.345,28.689-10.092,41.031-7.095
		c-7.892-9.345-12.661-21.401-12.661-34.583c0-33.13,30.032-59.25,64.355-52.609c21.485,4.148,38.554,21.804,42.164,43.382
		c2.804,16.741-2.191,32.324-11.889,43.81c12.426-3.014,26.338-2.233,41.341,7.288c14.76,9.37,25.851,24.331,26.867,41.778
		c1.797,30.998-24.919,56.664-55.547,56.664C294.964,369.136,285.073,365.912,276.929,360.027"/>
	<path d="M428.191,360.024c-4.641,0-8.396-3.755-8.396-8.396V24.188c0-4.628-3.763-8.396-8.396-8.396H92.355
		c-4.628,0-8.396,3.767-8.396,8.396v50.375c0,4.637-3.759,8.396-8.396,8.396c-4.637,0-8.396-3.759-8.396-8.396V24.188
		C67.167,10.298,78.466-1,92.355-1h319.044c13.889,0,25.188,11.298,25.188,25.188v327.44
		C436.587,356.268,432.831,360.024,428.191,360.024z"/>
	<path d="M411.399,502.754H92.355c-13.889,0-25.188-11.298-25.188-25.188V141.734c0-4.637,3.759-8.396,8.396-8.396
		c4.637,0,8.396,3.759,8.396,8.396v335.832c0,4.632,3.767,8.396,8.396,8.396h319.044c4.633,0,8.396-3.763,8.396-8.396v-58.771
		c0-4.641,3.755-8.396,8.396-8.396s8.396,3.755,8.396,8.396v58.771C436.587,491.455,425.288,502.754,411.399,502.754z"/>
	<path d="M83.959,108.15c0,4.635-3.761,8.396-8.396,8.396c-4.635,0-8.396-3.761-8.396-8.396s3.761-8.396,8.396-8.396
		C80.198,99.754,83.959,103.515,83.959,108.15"/>
	<path d="M436.587,385.215c0,4.635-3.761,8.396-8.396,8.396s-8.396-3.761-8.396-8.396s3.761-8.396,8.396-8.396
		S436.587,380.58,436.587,385.215"/>
	<path d="M283.173,418.795h-62.604c-3.177,0-6.207-1.517-8.097-4.05c-1.882-2.525-2.468-5.838-1.57-8.855
		c1.312-4.395,4.858-17.153,6.514-31.567c-6.022,2.132-12.434,3.206-19.182,3.206c-17.685,0-34.859-7.478-47.116-20.522
		c-11.778-12.528-17.694-28.59-16.665-45.243c1.177-19.137,12.454-36.773,30.948-48.375c9.507-5.969,19.416-9.253,29.599-9.835
		c-3.378-7.752-5.161-16.169-5.161-24.729c0-18.587,8.232-36.039,22.58-47.879c14.348-11.84,33.202-16.55,51.773-12.975
		c24.991,4.829,44.628,25.02,48.842,50.24c2.033,12.143,0.484,24.392-4.28,35.346c10.314,0.59,20.334,3.944,29.951,10.044
		c18.432,11.7,29.64,29.336,30.747,48.375c0.959,16.579-4.993,32.583-16.767,45.054c-12.29,13.028-29.484,20.498-47.161,20.498
		c-6.658,0-13.135-1.107-19.219-3.263c1.64,14.586,5.215,27.246,6.526,31.575c0.918,3.025,0.344,6.346-1.541,8.88
		C289.404,417.27,286.362,418.795,283.173,418.795z M229.362,402.003h45.013c-2.509-10.028-5.707-25.967-5.707-41.979v-16.431
		l13.315,9.626c6.797,4.919,14.939,7.519,23.54,7.519c13.078,0,25.819-5.551,34.953-15.226c8.568-9.085,12.905-20.645,12.217-32.559
		c-0.795-13.578-9.175-26.401-22.99-35.166c-11.249-7.141-22.679-9.158-34.863-6.223l-24.966,6.043l16.579-19.62
		c8.724-10.331,12.282-23.474,10.019-37.003c-3.017-18.054-17.603-33.071-35.469-36.523c-13.816-2.673-27.278,0.681-37.896,9.437
		c-10.47,8.642-16.476,21.371-16.476,34.928c0,10.651,3.792,21.006,10.683,29.16l16.583,19.637l-24.979-6.059
		c-12.102-2.927-23.429-0.967-34.592,6.043c-13.643,8.568-22.285,21.719-23.113,35.191c-0.742,11.979,3.571,23.597,12.139,32.706
		c9.101,9.683,21.814,15.234,34.883,15.234c8.744,0,16.657-2.525,23.523-7.51l13.328-9.667v16.464
		C235.085,375.807,231.965,391.582,229.362,402.003z"/>
	<path d="M109.138,116.547c-1.751,0-3.517-0.545-5.03-1.681c-3.71-2.78-4.46-8.043-1.677-11.753l50.375-67.167
		c2.779-3.702,8.035-4.464,11.753-1.677c3.71,2.779,4.46,8.043,1.677,11.753l-50.375,67.167
		C114.214,115.386,111.692,116.547,109.138,116.547z"/>
	<path d="M159.522,150.13c-4.637,0-8.396-3.759-8.396-8.396V40.984c0-4.637,3.759-8.396,8.396-8.396s8.396,3.759,8.396,8.396
		v100.751C167.918,146.371,164.159,150.13,159.522,150.13z"/>
	<path d="M176.314,116.547h-67.167c-4.637,0-8.396-3.759-8.396-8.396c0-4.637,3.759-8.396,8.396-8.396h67.167
		c4.637,0,8.396,3.759,8.396,8.396C184.71,112.787,180.95,116.547,176.314,116.547z"/>
	<path d="M176.314,150.13H142.73c-4.637,0-8.396-3.759-8.396-8.396s3.759-8.396,8.396-8.396h33.584c4.637,0,8.396,3.759,8.396,8.396
		S180.95,150.13,176.314,150.13z"/>
</g>
<g>
</g>
<g>
</g>
<g>
</g>
<g>
</g>
<g>
</g>
<g>
</g>
<g>
</g>
<g>
</g>
<g>
</g>
<g>
</g>
<g>
</g>
<g>
</g>
<g>
</g>
<g>
</g>
<g>
</g>
</svg>
