<?xml version="1.0" encoding="iso-8859-1"?>
<!-- Generator: Adobe Illustrator 19.0.0, SVG Export Plug-In . SVG Version: 6.00 Build 0)  -->
<svg version="1.1" id="Layer_1" xmlns="http://www.w3.org/2000/svg" xmlns:xlink="http://www.w3.org/1999/xlink" x="0px" y="0px"
	 viewBox="0 0 503.754 503.754" style="enable-background:new 0 0 503.754 503.754;" xml:space="preserve">
<g transform="translate(0 1)">
	<path style="fill:#FFA800;" d="M411.399,7.399H260.273c-9.277,0-16.792,7.514-16.792,16.792v453.378
		c0,9.277,7.514,16.792,16.792,16.792h151.126c9.277,0,16.792-7.514,16.792-16.792V24.191
		C428.191,14.914,420.676,7.399,411.399,7.399"/>
	<path style="fill:#FFFFFF;" d="M243.481,7.399H92.355c-9.277,0-16.792,7.514-16.792,16.792v453.378
		c0,9.277,7.514,16.792,16.792,16.792h151.126c9.277,0,16.792-7.514,16.792-16.792V24.191
		C260.273,14.914,252.758,7.399,243.481,7.399"/>
	<path style="fill:#FFE100;" d="M386.211,7.399H117.543c-9.277,0-16.792,7.514-16.792,16.792v453.378
		c0,9.277,7.514,16.792,16.792,16.792h268.669c9.277,0,16.792-7.514,16.792-16.792V24.191
		C403.003,14.914,395.489,7.399,386.211,7.399"/>
	<polygon style="fill:#FFA800;" points="251.877,175.317 151.126,301.256 251.877,427.194 352.628,301.256 	"/>
	<path d="M428.191,360.024c-4.641,0-8.396-3.755-8.396-8.396V24.188c0-4.628-3.763-8.396-8.396-8.396H92.355
		c-4.628,0-8.396,3.767-8.396,8.396v50.375c0,4.637-3.759,8.396-8.396,8.396c-4.637,0-8.396-3.759-8.396-8.396V24.188
		C67.167,10.298,78.466-1,92.355-1h319.044c13.889,0,25.188,11.298,25.188,25.188v327.44
		C436.587,356.268,432.831,360.024,428.191,360.024z"/>
	<path d="M411.399,502.754H92.355c-13.889,0-25.188-11.298-25.188-25.188V141.734c0-4.637,3.759-8.396,8.396-8.396
		c4.637,0,8.396,3.759,8.396,8.396v335.832c0,4.632,3.767,8.396,8.396,8.396h319.044c4.633,0,8.396-3.763,8.396-8.396v-58.771
		c0-4.641,3.755-8.396,8.396-8.396s8.396,3.755,8.396,8.396v58.771C436.587,491.455,425.288,502.754,411.399,502.754z"/>
	<path d="M83.959,108.15c0,4.635-3.761,8.396-8.396,8.396c-4.635,0-8.396-3.761-8.396-8.396s3.761-8.396,8.396-8.396
		C80.198,99.754,83.959,103.515,83.959,108.15"/>
	<path d="M436.587,385.215c0,4.635-3.761,8.396-8.396,8.396s-8.396-3.761-8.396-8.396s3.761-8.396,8.396-8.396
		S436.587,380.58,436.587,385.215"/>
	<path d="M251.877,440.629L140.373,301.252L251.877,161.88l111.5,139.373L251.877,440.629z M161.879,301.252l89.998,112.5
		l90.002-112.5l-90.002-112.496L161.879,301.252z"/>
	<path d="M159.522,49.379h-50.375c-4.637,0-8.396-3.759-8.396-8.396s3.759-8.396,8.396-8.396h50.375
		c4.637,0,8.396,3.759,8.396,8.396S164.159,49.379,159.522,49.379z"/>
	<path d="M109.147,57.775c-4.637,0-8.396-3.759-8.396-8.396v-8.396c0-4.637,3.759-8.396,8.396-8.396
		c4.637,0,8.396,3.759,8.396,8.396v8.396C117.543,54.016,113.783,57.775,109.147,57.775z"/>
	<path d="M125.947,133.338c-0.459,0-0.931-0.037-1.402-0.115c-4.571-0.771-7.654-5.1-6.887-9.675
		c6.764-40.196,15.82-58.632,34.879-87.222c2.57-3.858,7.785-4.915,11.643-2.329c3.858,2.57,4.899,7.785,2.329,11.643
		c-18.473,27.713-26.126,44.07-32.288,80.696C133.527,130.436,129.972,133.338,125.947,133.338z"/>
</g>
<g>
</g>
<g>
</g>
<g>
</g>
<g>
</g>
<g>
</g>
<g>
</g>
<g>
</g>
<g>
</g>
<g>
</g>
<g>
</g>
<g>
</g>
<g>
</g>
<g>
</g>
<g>
</g>
<g>
</g>
</svg>
