<?xml version="1.0" encoding="iso-8859-1"?>
<!-- Generator: Adobe Illustrator 19.0.0, SVG Export Plug-In . SVG Version: 6.00 Build 0)  -->
<svg version="1.1" id="Layer_1" xmlns="http://www.w3.org/2000/svg" xmlns:xlink="http://www.w3.org/1999/xlink" x="0px" y="0px"
	 viewBox="0 0 503.754 503.754" style="enable-background:new 0 0 503.754 503.754;" xml:space="preserve">
<g transform="translate(0 1)">
	<path style="fill:#FFA800;" d="M411.399,7.399H260.273c-9.277,0-16.792,7.514-16.792,16.792v453.378
		c0,9.277,7.514,16.792,16.792,16.792h151.126c9.277,0,16.792-7.514,16.792-16.792V24.191
		C428.191,14.914,420.676,7.399,411.399,7.399"/>
	<path style="fill:#FFFFFF;" d="M243.481,7.399H92.355c-9.277,0-16.792,7.514-16.792,16.792v453.378
		c0,9.277,7.514,16.792,16.792,16.792h151.126c9.277,0,16.792-7.514,16.792-16.792V24.191
		C260.273,14.914,252.758,7.399,243.481,7.399"/>
	<path style="fill:#FFE100;" d="M386.211,7.399H117.543c-9.277,0-16.792,7.514-16.792,16.792v453.378
		c0,9.277,7.514,16.792,16.792,16.792h268.669c9.277,0,16.792-7.514,16.792-16.792V24.191
		C403.003,14.914,395.489,7.399,386.211,7.399"/>
	<path style="fill:#FFA800;" d="M251.877,234.088c9.042-23.03,28.177-41.979,52.197-41.979c20.217,0,38.235,9.504,50.375,25.188
		c15.23,19.68,25.994,63.49-7.338,96.821c-16.909,16.909-95.235,96.284-95.235,96.284s-78.325-79.375-95.235-96.284
		c-33.332-33.332-22.568-77.142-7.338-96.821c12.14-15.684,30.158-25.188,50.375-25.188
		C223.7,192.109,242.835,211.059,251.877,234.088"/>
	<path d="M428.191,360.024c-4.641,0-8.396-3.755-8.396-8.396V24.188c0-4.628-3.763-8.396-8.396-8.396H92.355
		c-4.628,0-8.396,3.767-8.396,8.396v50.375c0,4.637-3.759,8.396-8.396,8.396c-4.637,0-8.396-3.759-8.396-8.396V24.188
		C67.167,10.298,78.466-1,92.355-1h319.044c13.889,0,25.188,11.298,25.188,25.188v327.44
		C436.587,356.268,432.831,360.024,428.191,360.024z"/>
	<path d="M411.399,502.754H92.355c-13.889,0-25.188-11.298-25.188-25.188V141.734c0-4.637,3.759-8.396,8.396-8.396
		c4.637,0,8.396,3.759,8.396,8.396v335.832c0,4.632,3.767,8.396,8.396,8.396h319.044c4.633,0,8.396-3.763,8.396-8.396v-58.771
		c0-4.641,3.755-8.396,8.396-8.396s8.396,3.755,8.396,8.396v58.771C436.587,491.455,425.288,502.754,411.399,502.754z"/>
	<path d="M83.959,108.15c0,4.635-3.761,8.396-8.396,8.396c-4.635,0-8.396-3.761-8.396-8.396s3.761-8.396,8.396-8.396
		C80.198,99.754,83.959,103.515,83.959,108.15"/>
	<path d="M436.587,385.215c0,4.635-3.761,8.396-8.396,8.396s-8.396-3.761-8.396-8.396s3.761-8.396,8.396-8.396
		S436.587,380.58,436.587,385.215"/>
	<path d="M251.877,422.353l-5.977-6.059c0,0-78.293-79.335-95.196-96.241c-37.593-37.593-24.88-86.132-8.039-107.892
		c13.992-18.079,34.772-28.447,57.017-28.447c20.649,0,39.626,11.831,52.196,31.767c12.569-19.936,31.55-31.767,52.196-31.767
		c22.252,0,43.029,10.368,57.017,28.447c16.849,21.76,29.558,70.299-8.043,107.892c-16.898,16.907-95.192,96.241-95.192,96.241
		L251.877,422.353z M199.681,200.506c-17.009,0-32.948,7.994-43.734,21.929c-13.348,17.243-23.347,55.77,6.633,85.746
		c14.074,14.078,70.668,71.398,89.297,90.264c18.628-18.866,75.227-76.186,89.297-90.264c31.099-31.091,17.899-71.193,6.633-85.742
		c-10.782-13.938-26.721-21.933-43.734-21.933c-22.138,0-37.741,19.743-44.382,36.654l-7.814,19.899l-7.814-19.899
		C237.422,220.249,221.815,200.506,199.681,200.506z"/>
	<path d="M134.334,141.734c-18.518,0-33.584-15.066-33.584-33.584s15.066-33.584,33.584-33.584s33.584,15.066,33.584,33.584
		S152.852,141.734,134.334,141.734z M134.334,91.359c-9.261,0-16.792,7.531-16.792,16.792s7.531,16.792,16.792,16.792
		c9.261,0,16.792-7.531,16.792-16.792S143.595,91.359,134.334,91.359z"/>
	<path d="M109.147,116.547c-4.637,0-8.396-3.759-8.396-8.396c0-44.488,24.167-75.563,58.771-75.563c4.637,0,8.396,3.759,8.396,8.396
		s-3.759,8.396-8.396,8.396c-24.716,0-41.979,24.167-41.979,58.771C117.543,112.787,113.783,116.547,109.147,116.547z"/>
</g>
<g>
</g>
<g>
</g>
<g>
</g>
<g>
</g>
<g>
</g>
<g>
</g>
<g>
</g>
<g>
</g>
<g>
</g>
<g>
</g>
<g>
</g>
<g>
</g>
<g>
</g>
<g>
</g>
<g>
</g>
</svg>
