<?xml version="1.0" encoding="iso-8859-1"?>
<!-- Generator: Adobe Illustrator 19.0.0, SVG Export Plug-In . SVG Version: 6.00 Build 0)  -->
<svg version="1.1" id="Layer_1" xmlns="http://www.w3.org/2000/svg" xmlns:xlink="http://www.w3.org/1999/xlink" x="0px" y="0px"
	 viewBox="0 0 503.754 503.754" style="enable-background:new 0 0 503.754 503.754;" xml:space="preserve">
<g transform="translate(0 1)">
	<path style="fill:#FFA800;" d="M411.399,7.399H260.273c-9.277,0-16.792,7.514-16.792,16.792v453.378
		c0,9.277,7.514,16.792,16.792,16.792h151.126c9.277,0,16.792-7.514,16.792-16.792V24.191
		C428.191,14.914,420.676,7.399,411.399,7.399"/>
	<path style="fill:#FFFFFF;" d="M243.481,7.399H92.355c-9.277,0-16.792,7.514-16.792,16.792v453.378
		c0,9.277,7.514,16.792,16.792,16.792h151.126c9.277,0,16.792-7.514,16.792-16.792V24.191
		C260.273,14.914,252.758,7.399,243.481,7.399"/>
	<path style="fill:#FFE100;" d="M386.211,7.399H117.543c-9.277,0-16.792,7.514-16.792,16.792v453.378
		c0,9.277,7.514,16.792,16.792,16.792h268.669c9.277,0,16.792-7.514,16.792-16.792V24.191
		C403.003,14.914,395.489,7.399,386.211,7.399"/>
	<polygon style="fill:#FFA800;" points="251.877,175.317 151.126,301.256 251.877,427.194 352.628,301.256 	"/>
	<path d="M428.191,360.024c-4.641,0-8.396-3.755-8.396-8.396V24.188c0-4.628-3.763-8.396-8.396-8.396H92.355
		c-4.628,0-8.396,3.767-8.396,8.396v50.375c0,4.637-3.759,8.396-8.396,8.396c-4.637,0-8.396-3.759-8.396-8.396V24.188
		C67.167,10.298,78.466-1,92.355-1h319.044c13.889,0,25.188,11.298,25.188,25.188v327.44
		C436.587,356.268,432.831,360.024,428.191,360.024z"/>
	<path d="M411.399,502.754H92.355c-13.889,0-25.188-11.298-25.188-25.188V141.734c0-4.637,3.759-8.396,8.396-8.396
		c4.637,0,8.396,3.759,8.396,8.396v335.832c0,4.632,3.767,8.396,8.396,8.396h319.044c4.633,0,8.396-3.763,8.396-8.396v-58.771
		c0-4.641,3.755-8.396,8.396-8.396s8.396,3.755,8.396,8.396v58.771C436.587,491.455,425.288,502.754,411.399,502.754z"/>
	<path d="M83.959,108.15c0,4.635-3.761,8.396-8.396,8.396c-4.635,0-8.396-3.761-8.396-8.396s3.761-8.396,8.396-8.396
		C80.198,99.754,83.959,103.515,83.959,108.15"/>
	<path d="M436.587,385.215c0,4.635-3.761,8.396-8.396,8.396s-8.396-3.761-8.396-8.396s3.761-8.396,8.396-8.396
		S436.587,380.58,436.587,385.215"/>
	<path d="M251.877,440.629L140.373,301.252L251.877,161.88l111.5,139.373L251.877,440.629z M161.879,301.252l89.998,112.5
		l90.002-112.5l-90.002-112.496L161.879,301.252z"/>
	<path d="M125.938,99.755h-8.371c-4.637,0-8.396-3.759-8.396-8.396s3.759-8.396,8.396-8.396h8.371
		c9.261,0,16.792-7.531,16.792-16.792s-7.531-16.792-16.792-16.792c-1.927,0-3.808,0.32-5.592,0.955
		c-2.353,0.824-4.714,2.456-7.244,4.981c-3.28,3.28-8.593,3.28-11.872,0c-3.28-3.28-3.28-8.593,0-11.872
		c4.341-4.346,8.769-7.269,13.524-8.945c3.575-1.267,7.342-1.91,11.184-1.91c18.518,0,33.584,15.066,33.584,33.584
		S144.456,99.755,125.938,99.755z"/>
	<path d="M125.943,150.126c-9.068,0-17.604-3.739-24.688-10.815c-3.28-3.28-3.28-8.593-0.004-11.876
		c3.28-3.28,8.597-3.276,11.876-0.004c2.693,2.693,7.105,5.903,12.815,5.903c9.261,0,16.792-7.531,16.792-16.792
		s-7.531-16.792-16.792-16.792h-8.396c-4.637,0-8.396-3.759-8.396-8.396c0-4.637,3.759-8.396,8.396-8.396h8.396
		c18.518,0,33.584,15.066,33.584,33.584S144.46,150.126,125.943,150.126z"/>
</g>
<g>
</g>
<g>
</g>
<g>
</g>
<g>
</g>
<g>
</g>
<g>
</g>
<g>
</g>
<g>
</g>
<g>
</g>
<g>
</g>
<g>
</g>
<g>
</g>
<g>
</g>
<g>
</g>
<g>
</g>
</svg>
