<?xml version="1.0" encoding="iso-8859-1"?>
<!-- Generator: Adobe Illustrator 16.0.0, SVG Export Plug-In . SVG Version: 6.00 Build 0)  -->
<!DOCTYPE svg PUBLIC "-//W3C//DTD SVG 1.1//EN" "http://www.w3.org/Graphics/SVG/1.1/DTD/svg11.dtd">
<svg version="1.1" id="Capa_1" xmlns="http://www.w3.org/2000/svg" xmlns:xlink="http://www.w3.org/1999/xlink" x="0px" y="0px"
	 width="414.373px" height="414.373px" viewBox="0 0 414.373 414.373" style="enable-background:new 0 0 414.373 414.373;"
	 xml:space="preserve">
<g>
	<path d="M323.891,0H90.482c-12.27,0-22.215,9.946-22.215,22.216v369.94c0,12.271,9.945,22.217,22.215,22.217h233.408
		c12.27,0,22.215-9.945,22.215-22.217V22.216C346.105,9.947,336.16,0,323.891,0z M284.025,212.666l-68.475,104.529
		c-1.848,2.82-4.992,4.521-8.364,4.521s-6.518-1.7-8.365-4.521l-68.474-104.529c-2.18-3.328-2.18-7.631,0-10.959l68.474-104.529
		c1.848-2.821,4.993-4.521,8.365-4.521s6.517,1.7,8.364,4.521l68.475,104.529C286.205,205.035,286.205,209.339,284.025,212.666z"/>
</g>
<g>
</g>
<g>
</g>
<g>
</g>
<g>
</g>
<g>
</g>
<g>
</g>
<g>
</g>
<g>
</g>
<g>
</g>
<g>
</g>
<g>
</g>
<g>
</g>
<g>
</g>
<g>
</g>
<g>
</g>
</svg>
