<?xml version="1.0" encoding="utf-8"?>
<!-- Generator: Adobe Illustrator 14.0.0, SVG Export Plug-In . SVG Version: 6.00 Build 43363)  -->
<!DOCTYPE svg PUBLIC "-//W3C//DTD SVG 1.1//EN" "http://www.w3.org/Graphics/SVG/1.1/DTD/svg11.dtd">
<svg version="1.1" id="Layer_1" xmlns="http://www.w3.org/2000/svg" xmlns:xlink="http://www.w3.org/1999/xlink" x="0px" y="0px"
	 width="2000px" height="1500px" viewBox="0 0 2000 1500" enable-background="new 0 0 2000 1500" xml:space="preserve">
<g>
	<g>
		<g>
			<path d="M1178.235,754.844c11.867,8.17,13.582,26.525,3.746,36.361c-1.191,1.189-1.619,0.873-2.381-0.381
				c-3.934-6.393-9.598-10.313-17.07-11.486c-1.205-0.189-2.887-0.824-3.125,1.111c-0.207,1.76,1.443,1.57,2.602,1.713
				c9.076,1.158,16.896,9.027,18.26,18.42c1.508,10.279-3.395,20.115-12.01,24.05c-0.713-0.729-0.252-1.618-0.27-2.396
				c-0.078-7.012-3.109-12.645-8.123-17.34c-0.791-0.73-1.695-1.459-2.648-0.334c-0.826,1-0.064,1.746,0.682,2.412
				c11.994,10.677,8.869,28.064-6.773,35.299c-10.916,5.045-25.193,2.713-33.301-5.488c-3.68-3.729-5.695-8.156-5.648-13.486
				c0.064-7.614,0.064-15.246-0.016-22.86c-0.016-1.793,0.477-2.157,2.238-1.825c6.059,1.143,10.502,5.506,11.992,11.82
				c0.287,1.189-0.254,3.648,2.063,3.046c1.904-0.509,0.938-2.522,0.652-3.824c-1.652-7.679-7.395-12.866-15.438-13.944
				c-1.078-0.144-1.492-0.444-1.492-1.555c0.033-8.06,0.049-16.104,0-24.162c-0.016-1.762,0.873-1.143,1.809-0.92
				c6.76,1.648,12.867,0.443,18.086-4.348c0.381-0.35,0.746-0.729,1.08-1.11c0.648-0.729,0.871-1.539,0.078-2.284
				c-0.873-0.841-1.586-0.302-2.205,0.381c-2.744,3.029-6.172,4.664-10.184,5.156c-0.604,0.078-1.207,0.109-1.809,0.094
				c-6.141-0.143-6.855-0.871-6.855-6.869c0-11.517-0.125-23.036,0.049-34.538c0.221-17.974,18.752-30.365,35.488-23.955
				c10.535,4.03,15.215,14.563,15.5,23.479c0.08,2.333-1.205,1.443-2.332,1.11c-11.486-3.41-23.463,0.889-29.777,10.693
				c-2.904,4.505-4.158,9.456-3.777,14.818c0.049,0.682,0.191,1.364,0.365,2.03c0.207,0.793,0.809,1.095,1.586,0.951
				c0.684-0.11,1.064-0.555,1.08-1.252c0.016-0.524-0.047-1.031-0.08-1.555c-0.871-11.836,7.664-22.401,19.213-23.766
				c12.85-1.523,23.432,5.997,25.637,18.054c1.207,6.584-0.158,12.517-3.855,18.007c-0.617,0.904-1.713,1.92-0.395,2.871
				c1.475,1.063,2.109-0.443,2.791-1.364C1176.079,762.537,1177.349,758.873,1178.235,754.844L1178.235,754.844z M1060.552,805.721
				c0.889-0.889,1.936-2.68,3.363-1.27c1.555,1.539-0.508,2.381-1.363,3.238c-8.314,8.313-8.648,20.053-0.73,28.65
				c10.598,11.502,32.078,11.28,42.422-0.459c2.824-3.205,4.791-6.871,4.807-11.201c0.08-18.609,0.031-37.234,0.096-55.844
				c0-1.936-0.826-1.936-2.205-1.492c-3.822,1.254-6.346,3.729-7.281,7.727c-0.256,1.111-0.477,2.428-2.08,1.951
				c-1.412-0.412-1.016-1.633-0.76-2.617c1.441-5.299,4.758-8.773,10.201-9.884c1.729-0.349,2.172-1.016,2.156-2.696
				c-0.08-10.995-0.111-21.989,0-32.984c0.064-6.25-1.889-11.708-5.68-16.579c-6.9-8.868-18.578-11.961-28.891-7.662
				c-10.375,4.331-16.197,14.374-14.865,25.638c1.207,10.169,10.139,18.768,21.006,20.418c1.221,0.19,3.648-0.46,3.316,1.777
				c-0.316,2.252-2.602,1.237-3.887,1c-11.693-2.174-19.561-8.79-22.783-20.372c-0.65-2.347-1.332-1.792-2.602-0.776
				c-7.09,5.679-9.994,13.024-8.805,21.988c0.477,3.665,1.92,6.98,4.047,9.994c0.633,0.904,1.664,1.904,0.27,2.857
				c-1.365,0.92-1.969-0.445-2.617-1.302c-0.477-0.618-0.889-1.284-1.287-1.951c-1.682-2.761-2.553-5.823-3.361-8.948
				c-11.328,7.299-14.105,25.432-3.459,36.49c1.412,1.458,1.633-0.017,2.125-0.763c4.156-6.504,10.059-10.327,17.689-11.485
				c1.031-0.159,2.254-0.334,2.521,1.094c0.287,1.46-0.889,1.635-1.951,1.824c-11.486,2.031-18.402,9.742-19.244,21.402
				c-0.617,8.599,4.871,17.991,12.693,21.211C1052.761,817.064,1055.38,810.877,1060.552,805.721L1060.552,805.721z
				 M1135.481,799.725c-0.938,0.539-2.332,0.889-1.588,2.38c0.746,1.476,1.889,0.714,2.873,0.19
				c8.043-4.221,12.723-14.453,10.629-23.307c-0.223-0.967-0.396-2.252-1.855-1.982c-1.461,0.27-1.254,1.459-0.984,2.475
				c0.334,1.27,0.381,2.555,0.428,3.871C1144.729,790.475,1141.827,796.092,1135.481,799.725L1135.481,799.725z M1077.591,800.137
				c0.682,0.92,1.459,2.031,2.729,1.111c1.174-0.857,0.285-1.793-0.318-2.666c-6.25-8.916-6.25-18.656,0-27.493
				c0.604-0.841,1.539-1.761,0.381-2.666c-1.236-0.968-2.045,0.097-2.729,1.032c-3.363,4.504-5.123,9.55-5.045,14.943
				C1072.45,790.396,1074.163,795.536,1077.591,800.137L1077.591,800.137z"/>
		</g>
	</g>
	<g>
		<path d="M1422.13,775.039c-0.668,0.123-0.574,0.668-0.451,1.133c0.152,0.58,0.174,1.168,0.197,1.771
			c-0.117,3.26-1.445,5.829-4.35,7.492c-0.428,0.246-1.066,0.406-0.727,1.089c0.342,0.675,0.865,0.326,1.314,0.087
			c3.682-1.932,5.822-6.613,4.865-10.665C1422.876,775.504,1422.798,774.916,1422.13,775.039z"/>
		<path d="M1450.108,710.437c-5.422-5.423-14.412-8.135-26.969-8.135h-33.961c-12.557,0-21.547,2.712-26.969,8.135
			c-5.422,5.421-8.133,13.269-8.133,23.544v77.908c0,10.275,2.711,18.123,8.133,23.547c5.422,5.421,14.412,8.132,26.969,8.132
			h33.961c12.557,0,21.547-2.711,26.969-8.132c5.422-5.424,8.133-13.271,8.133-23.547V733.98
			C1458.241,723.705,1455.53,715.857,1450.108,710.437z M1405.489,768.092c0.008,0.77-0.195,1.074-0.986,1.234
			c-2.49,0.508-4.008,2.098-4.668,4.522c-0.117,0.45-0.299,1.009,0.348,1.198c0.734,0.217,0.836-0.385,0.951-0.894
			c0.428-1.829,1.584-2.962,3.332-3.535c0.633-0.203,1.01-0.203,1.01,0.683c-0.029,8.516-0.008,17.038-0.045,25.554
			c-0.006,1.981-0.906,3.659-2.199,5.126c-4.732,5.371-14.563,5.474-19.412,0.21c-3.623-3.935-3.469-9.307,0.334-13.11
			c0.393-0.393,1.336-0.777,0.625-1.482c-0.654-0.645-1.133,0.175-1.539,0.582c-2.367,2.359-3.564,5.19-3.268,8.683
			c-3.578-1.474-6.09-5.772-5.809-9.706c0.385-5.336,3.551-8.865,8.807-9.794c0.486-0.087,1.023-0.167,0.893-0.835
			c-0.123-0.653-0.682-0.574-1.154-0.501c-3.49,0.53-6.191,2.28-8.094,5.256c-0.225,0.342-0.326,1.017-0.973,0.349
			c-4.871-5.061-3.602-13.357,1.582-16.697c0.371,1.43,0.77,2.831,1.539,4.095c0.182,0.305,0.371,0.609,0.59,0.893
			c0.295,0.392,0.572,1.017,1.197,0.596c0.639-0.437,0.166-0.894-0.123-1.308c-0.975-1.379-1.635-2.896-1.852-4.573
			c-0.545-4.102,0.783-7.463,4.027-10.062c0.582-0.465,0.895-0.719,1.191,0.355c1.475,5.3,5.074,8.327,10.426,9.321
			c0.588,0.108,1.633,0.573,1.777-0.457c0.152-1.023-0.957-0.726-1.516-0.813c-4.975-0.755-9.061-4.689-9.613-9.343
			c-0.609-5.155,2.055-9.75,6.803-11.732c4.719-1.967,10.063-0.552,13.219,3.506c1.736,2.229,2.629,4.727,2.6,7.586
			C1405.438,758.029,1405.454,763.061,1405.489,768.092z M1438.806,781.537c-0.545,0.544-0.742,0.398-1.09-0.175
			c-1.801-2.925-4.393-4.719-7.813-5.256c-0.551-0.087-1.32-0.378-1.43,0.508c-0.094,0.806,0.66,0.719,1.191,0.784
			c4.152,0.529,7.732,4.131,8.355,8.429c0.689,4.704-1.553,9.205-5.496,11.006c-0.326-0.334-0.115-0.741-0.123-1.097
			c-0.035-3.209-1.422-5.785-3.717-7.935c-0.361-0.334-0.775-0.668-1.213-0.152c-0.377,0.458-0.029,0.798,0.313,1.104
			c5.488,4.886,4.059,12.843-3.1,16.153c-4.994,2.309-11.529,1.241-15.238-2.512c-1.684-1.707-2.605-3.732-2.584-6.172
			c0.029-3.484,0.029-6.977-0.008-10.461c-0.006-0.82,0.219-0.987,1.023-0.835c2.773,0.522,4.807,2.52,5.488,5.409
			c0.131,0.544-0.115,1.669,0.943,1.394c0.871-0.232,0.43-1.154,0.299-1.75c-0.756-3.514-3.383-5.888-7.064-6.381
			c-0.492-0.065-0.682-0.204-0.682-0.712c0.014-3.688,0.021-7.368,0-11.057c-0.008-0.806,0.398-0.522,0.826-0.421
			c3.094,0.755,5.889,0.203,8.277-1.989c0.174-0.16,0.342-0.334,0.494-0.508c0.297-0.334,0.398-0.705,0.035-1.046
			c-0.398-0.384-0.725-0.138-1.01,0.175c-1.254,1.387-2.822,2.134-4.658,2.359c-0.277,0.036-0.553,0.051-0.828,0.043
			c-2.811-0.064-3.137-0.398-3.137-3.143c0-5.271-0.059-10.542,0.021-15.805c0.102-8.226,8.58-13.896,16.24-10.962
			c4.82,1.844,6.963,6.665,7.092,10.744c0.037,1.068-0.551,0.661-1.066,0.509c-5.256-1.561-10.736,0.407-13.627,4.894
			c-1.328,2.062-1.902,4.326-1.729,6.78c0.023,0.312,0.088,0.624,0.168,0.929c0.094,0.363,0.369,0.502,0.727,0.436
			c0.313-0.051,0.486-0.254,0.492-0.573c0.008-0.239-0.021-0.472-0.035-0.711c-0.398-5.416,3.506-10.251,8.791-10.876
			c5.881-0.696,10.723,2.744,11.732,8.262c0.551,3.014-0.074,5.729-1.766,8.24c-0.281,0.414-0.783,0.879-0.18,1.313
			c0.674,0.487,0.965-0.202,1.277-0.624c1.104-1.438,1.684-3.114,2.09-4.958C1442.522,768.637,1443.306,777.035,1438.806,781.537z"
			/>
	</g>
	<path d="M666.472,702.302h6.85c22.261,0,33.391,10.56,33.391,31.679v109.587h-39.669V739.403c0-4.753-2.568-7.136-7.705-7.136
		h-6.85c-5.52,0-8.275,3.046-8.275,9.133v102.167h-39.954V739.403c0-4.753-2.568-7.136-7.705-7.136h-6.849
		c-5.521,0-8.276,3.046-8.276,9.133v102.167H541.76V702.302h39.099v15.982c2.661-10.652,10.272-15.982,22.829-15.982h7.137
		c15.597,0,25.777,5.33,30.534,15.982c1.329-4.945,4.232-8.847,8.705-11.701C654.53,703.73,660.002,702.302,666.472,702.302z"/>
	<path d="M763.216,702.302h32.249c24.16,0,36.244,10.56,36.244,31.679v49.942h-66.494v24.257c0,2.475,0.571,4.236,1.711,5.279
		c1.143,1.049,3.14,1.569,5.994,1.569h12.842c2.663,0,4.567-0.571,5.709-1.711c1.14-1.142,1.711-3.042,1.711-5.707v-9.42h38.241
		v13.698c0,21.119-12.083,31.679-36.244,31.679h-31.963c-23.972,0-35.957-10.56-35.957-31.679V733.98
		C727.259,712.861,739.244,702.302,763.216,702.302z M765.215,760.521h28.253v-22.83c0-2.472-0.57-4.232-1.713-5.28
		c-1.142-1.043-3.046-1.569-5.707-1.569H772.92c-2.854,0-4.852,0.526-5.994,1.569c-1.14,1.047-1.711,2.808-1.711,5.28V760.521z"/>
	<path d="M976.394,702.302h6.85c22.26,0,33.391,10.56,33.391,31.679v109.587h-39.67V739.403c0-4.753-2.568-7.136-7.705-7.136h-6.85
		c-5.52,0-8.275,3.046-8.275,9.133v102.167h-39.953V739.403c0-4.753-2.568-7.136-7.705-7.136h-6.85
		c-5.521,0-8.275,3.046-8.275,9.133v102.167h-39.67V702.302h39.1v15.982c2.66-10.652,10.271-15.982,22.83-15.982h7.135
		c15.598,0,25.777,5.33,30.535,15.982c1.328-4.945,4.232-8.847,8.705-11.701C964.452,703.73,969.923,702.302,976.394,702.302z"/>
	<path d="M1270.937,701.446h4.852v34.531h-13.984c-11.986,0-17.979,6.662-17.979,19.978v87.612h-39.67V702.302h39.1v20.264
		c1.52-6.278,4.658-11.366,9.418-15.268C1257.425,703.399,1263.517,701.446,1270.937,701.446z"/>
	<path d="M1288.341,683.467v-30.821h41.381v30.821H1288.341z M1328.866,843.567h-39.67V702.302h39.67V843.567z"/>
</g>
</svg>
